<?xml version="1.0" encoding="UTF-8" standalone="no"?>
<svg width="512px" height="512px" viewBox="0 0 512 512" version="1.1" xmlns="http://www.w3.org/2000/svg" xmlns:xlink="http://www.w3.org/1999/xlink" xmlns:sketch="http://www.bohemiancoding.com/sketch/ns">
    <!-- Generator: Sketch 3.4 (15575) - http://www.bohemiancoding.com/sketch -->
    <title>like-color</title>
    <desc>Created with Sketch.</desc>
    <defs></defs>
    <g id="Icons" stroke="none" stroke-width="1" fill="none" fill-rule="evenodd" sketch:type="MSPage">
        <g id="like-color" sketch:type="MSArtboardGroup" fill="#E13E89">
            <path d="M368.440253,186.720211 L368.440253,428.682475 L472.087311,428.682475 L472.087311,186.720211 L368.440253,186.720211 L368.440253,186.720211 Z M420.263782,394.116437 C409.899076,394.116437 402.989272,387.20323 402.989272,376.833419 C402.989272,366.463607 409.899076,359.5504 420.263782,359.5504 C430.628488,359.5504 437.538292,366.463607 437.538292,376.833419 C437.538292,387.20323 430.628488,394.116437 420.263782,394.116437 L420.263782,394.116437 Z M173.238292,74.3805884 C150.781429,112.40323 226.789272,145.240966 202.604958,184.991909 L85.1382918,184.991909 C62.6814291,184.991909 36.7696644,197.090022 40.2245663,219.557947 C45.4069193,245.482475 93.7755467,433.867381 97.2304487,444.237192 C109.322606,471.890022 140.416723,463.248513 157.691233,458.063607 C176.693194,451.1504 333.891233,411.399456 333.891233,411.399456 L333.891233,221.286249 L211.242213,48.4560601 C211.242213,48.4560601 187.0579,50.1843619 173.238292,74.3805884 L173.238292,74.3805884 Z" id="Shape" sketch:type="MSShapeGroup" transform="translate(256.000000, 256.000000) scale(-1, 1) translate(-256.000000, -256.000000) "></path>
        </g>
    </g>
</svg>